<?xml version="1.0" encoding="UTF-8" standalone="no"?>
<!-- Created with Inkscape (http://www.inkscape.org/) -->

<svg
   width="75.205177mm"
   height="11.786427mm"
   viewBox="0 0 75.205177 11.786428"
   version="1.1"
   id="svg5"
   sodipodi:docname="logo.svg"
   inkscape:version="1.2.2 (b0a8486541, 2022-12-01)"
   xmlns:inkscape="http://www.inkscape.org/namespaces/inkscape"
   xmlns:sodipodi="http://sodipodi.sourceforge.net/DTD/sodipodi-0.dtd"
   xmlns="http://www.w3.org/2000/svg"
   xmlns:svg="http://www.w3.org/2000/svg">
  <sodipodi:namedview
     id="namedview7"
     pagecolor="#ffffff"
     bordercolor="#666666"
     borderopacity="1.0"
     inkscape:showpageshadow="2"
     inkscape:pageopacity="0.0"
     inkscape:pagecheckerboard="0"
     inkscape:deskcolor="#d1d1d1"
     inkscape:document-units="mm"
     showgrid="false"
     inkscape:zoom="1"
     inkscape:cx="142.5"
     inkscape:cy="114.5"
     inkscape:window-width="2560"
     inkscape:window-height="1367"
     inkscape:window-x="0"
     inkscape:window-y="0"
     inkscape:window-maximized="1"
     inkscape:current-layer="layer1" />
  <defs
     id="defs2" />
  <g
     inkscape:label="Layer 1"
     inkscape:groupmode="layer"
     id="layer1"
     transform="translate(-57.566855,-118.75379)">
    <g
       aria-label="Dinesh Pai"
       id="text186"
       style="font-size:22.3545px;line-height:1.25;font-family:P052;-inkscape-font-specification:P052;stroke-width:0.558862;fill:#ffffff"
       transform="matrix(0.85040691,0,0,0.85040691,8.6116035,17.764746)">
      <path
         d="m 61.888723,120.4825 q -0.05961,0.17884 -0.08942,0.4769 0,0.29806 0,4.5007 v 4.4411 q 0,0.86437 0.178836,1.31146 0.08942,0.20864 0.44709,0.32787 0.387478,0.11922 0.774956,0.11922 2.414286,0 3.546914,-1.34127 1.132628,-1.37107 1.132628,-4.26226 0,-2.80176 -1.400882,-4.35167 -1.311464,-1.4605 -3.57672,-1.4605 -0.357672,0 -0.655732,0.0298 -0.268254,0.0298 -0.357672,0.20864 z m -1.430688,-0.9836 q 1.281658,0 3.010406,-0.0596 3.42769,0 5.484304,1.66914 2.056614,1.72875 2.056614,4.70935 0,3.33827 -2.23545,5.06702 -2.026808,1.60952 -5.454498,1.60952 -2.83157,0 -5.692946,0 -0.05961,-0.0894 -0.05961,-0.35767 0,-0.26826 0.05961,-0.35767 0.119224,0 0.506702,-0.0596 0.655732,-0.0894 0.774956,-0.29806 0.14903,-0.35767 0.14903,-1.84797 v -7.24286 q 0,-1.43068 -0.14903,-1.84797 -0.208642,-0.29806 -1.281658,-0.29806 -0.05961,-0.11922 -0.05961,-0.38748 0,-0.26825 0.05961,-0.35767 0.685538,0.0596 1.430688,0.0596 z"
         style="font-family:Ramaraja;-inkscape-font-specification:Ramaraja;fill:#ffffff"
         id="path238" />
      <path
         d="m 75.986945,123.99961 q -0.05961,0.14903 -0.208642,1.10282 v 4.4709 q 0,1.4903 0.08942,1.72875 0.08942,0.20864 0.238448,0.29806 0.14903,0.0596 0.327866,0.11922 0.29806,0.0596 0.625926,0.0596 0.05961,0.11922 0.05961,0.38747 0,0.26826 -0.05961,0.35768 -1.4903,-0.14903 -2.563316,-0.14903 -1.222046,0 -2.712346,0.14903 -0.05961,-0.0894 -0.05961,-0.35768 0,-0.26825 0.05961,-0.38747 0.625926,0 0.923986,-0.11923 0.29806,-0.14903 0.357672,-0.23845 0.14903,-0.35767 0.14903,-1.84797 V 127.01 q 0,-0.23845 -0.05961,-0.71535 -0.05961,-0.47689 -0.119224,-0.59612 -0.208642,-0.38748 -1.251852,-0.38748 -0.05961,-0.0298 -0.05961,-0.29806 0.02981,-0.29806 0.08942,-0.29806 1.132628,-0.0894 2.205644,-0.41728 1.073016,-0.35767 1.63933,-0.62593 0.08942,0.0298 0.208642,0.14903 0.119224,0.11923 0.119224,0.17884 z m -3.099824,-3.69594 q 0,-0.59612 0.387478,-0.9836 0.417284,-0.41729 1.013404,-0.41729 0.59612,0 1.013404,0.41729 0.417284,0.38748 0.417284,0.9836 0,0.59612 -0.417284,1.0134 -0.417284,0.41728 -1.013404,0.41728 -0.59612,0 -1.013404,-0.41728 -0.387478,-0.41728 -0.387478,-1.0134 z"
         style="font-family:Ramaraja;-inkscape-font-specification:Ramaraja;fill:#ffffff"
         id="path240" />
      <path
         d="m 80.010739,132.3751 q -1.222046,0 -2.712346,0.14903 -0.05961,-0.0894 -0.05961,-0.35768 0,-0.26825 0.05961,-0.38747 0.625926,0 0.923986,-0.11923 0.29806,-0.14903 0.357672,-0.23845 0.14903,-0.35767 0.14903,-1.84797 v -2.56331 q 0,-0.23845 -0.05961,-0.71535 -0.05961,-0.47689 -0.119224,-0.59612 -0.208642,-0.38748 -1.251852,-0.38748 -0.05961,-0.0298 -0.05961,-0.29806 0.02981,-0.29806 0.08942,-0.29806 1.132628,-0.0894 2.205644,-0.41728 1.073016,-0.35767 1.63933,-0.62593 0.08942,0 0.208642,0.14903 0.119224,0.11923 0.08942,0.17884 0,0.0596 -0.02981,0.23845 0,0.14903 -0.05961,0.38748 -0.14903,0.59612 -0.05961,0.59612 0.02981,0 0.05961,-0.0298 0.02981,-0.0298 0.08942,-0.0596 0.417284,-0.4769 1.013404,-0.83457 1.04321,-0.62593 1.78836,-0.62593 0.774956,0 1.281658,0.29806 0.536508,0.26826 0.834568,0.83457 0.506702,1.01341 0.506702,3.4873 v 1.28166 q 0,1.4903 0.08942,1.72875 0.08942,0.20864 0.238448,0.29806 0.178836,0.0596 0.387478,0.11922 0.357672,0.0596 0.685538,0.0596 0.08942,0.11922 0.05961,0.38747 0,0.26826 -0.05961,0.35768 -1.400882,-0.14903 -2.68254,-0.14903 -0.983598,0 -2.473898,0.14903 -0.05961,-0.0894 -0.05961,-0.35768 0,-0.26825 0.05961,-0.38747 0.208642,0 0.59612,-0.0596 0.387478,-0.0894 0.476896,-0.35767 0.119224,-0.32786 0.119224,-1.78836 v -1.54991 q 0,-2.77196 -1.311464,-2.77196 -0.566314,0 -0.983598,0.26826 -0.74515,0.5365 -0.74515,0.83456 v 3.21905 q 0,1.4903 0.08942,1.72875 0.08942,0.20864 0.238448,0.29806 0.14903,0.0596 0.327866,0.11922 0.29806,0.0596 0.625926,0.0596 0.05961,0.11922 0.05961,0.38747 0,0.26826 -0.05961,0.35768 -1.4903,-0.14903 -2.563316,-0.14903 z"
         style="font-family:Ramaraja;-inkscape-font-specification:Ramaraja;fill:#ffffff"
         id="path242" />
      <path
         d="m 91.038964,126.89079 q 0.05961,0 0.387478,0 0.357672,-0.0298 0.774956,-0.0596 0.953792,-0.0298 1.371076,-0.0894 0.268254,-0.0298 0.268254,-0.32786 0,-0.32787 -0.05961,-0.68554 -0.05961,-0.35767 -0.208642,-0.62593 -0.327866,-0.65573 -0.864374,-0.65573 -0.506702,0 -0.804762,0.29806 -0.29806,0.26825 -0.506702,0.65573 -0.357672,0.77496 -0.357672,1.4903 z m 4.709348,0.53651 q -1.78836,0.14903 -4.709348,0.23845 0,1.81816 1.013404,2.68254 0.774956,0.62592 1.669136,0.62592 0.923986,0 1.430688,-0.32786 0.506702,-0.32787 0.834568,-0.65573 0.238448,0.0596 0.238448,0.32786 0,0.26826 -0.119224,0.44709 -0.08942,0.14903 -0.387478,0.4769 -0.29806,0.29806 -0.74515,0.59612 -1.132628,0.77495 -2.175838,0.77495 -1.04321,0 -1.78836,-0.26825 -0.74515,-0.29806 -1.311464,-0.83457 -1.222046,-1.16243 -1.222046,-3.0104 0,-1.90759 1.311464,-3.33828 1.400882,-1.5201 3.040212,-1.5201 1.758554,0 2.68254,1.04321 0.774956,0.83457 0.774956,1.93739 0,0.32786 -0.14903,0.56631 -0.14903,0.23845 -0.387478,0.23845 z"
         style="font-family:Ramaraja;-inkscape-font-specification:Ramaraja;fill:#ffffff"
         id="path244" />
      <path
         d="m 97.298242,129.63294 q 0,-0.14903 0.29806,-0.14903 0.29806,0 0.417284,0.20865 0.208642,1.16243 0.89418,1.69894 0.506702,0.41728 1.132624,0.41728 0.62593,0 0.92399,-0.32786 0.29806,-0.32787 0.29806,-0.71535 0,-0.38748 -0.20864,-0.62592 -0.17884,-0.26826 -0.4769,-0.44709 -0.26825,-0.17884 -0.625924,-0.35768 -1.311464,-0.59612 -2.205644,-1.43068 -0.59612,-0.56632 -0.59612,-1.43069 0,-0.89418 0.357672,-1.40088 0.357672,-0.50671 0.89418,-0.83457 1.013404,-0.62593 2.414286,-0.62593 0.68554,0 1.19224,0.14903 0.5067,0.11923 1.0134,0.23845 0.17884,0.74515 0.29806,1.52011 0.11923,0.77495 0.11923,0.92398 0,0.11923 -0.26826,0.11923 -0.26825,0 -0.44709,-0.17884 -0.23844,-0.86437 -0.5365,-1.25185 -0.62593,-0.71535 -1.54992,-0.71535 -0.5067,0 -0.834564,0.26826 -0.29806,0.26825 -0.29806,0.71534 0,0.44709 0.178836,0.71535 0.208642,0.26825 0.476898,0.47689 0.29806,0.17884 0.65573,0.32787 0.35767,0.14903 0.71534,0.32786 0.35768,0.14903 0.74515,0.35768 0.38748,0.20864 0.68554,0.5067 0.68554,0.68554 0.68554,1.60952 0,0.89418 -0.32787,1.40088 -0.32786,0.50671 -0.86437,0.83457 -1.0134,0.62593 -2.68254,0.62593 -0.685538,0 -1.311464,-0.14903 -0.625926,-0.17884 -1.013404,-0.26826 -0.05961,-0.41728 -0.08942,-1.07301 -0.02981,-0.68554 -0.05961,-1.01341 0,-0.35767 0,-0.44709 z"
         style="font-family:Ramaraja;-inkscape-font-specification:Ramaraja;fill:#ffffff"
         id="path246" />
      <path
         d="m 109.22063,132.52413 q -1.40089,-0.14903 -2.59313,-0.14903 -1.16243,0 -2.65273,0.14903 -0.0596,-0.0894 -0.0596,-0.35768 0,-0.26825 0.0596,-0.38747 0.62593,0 0.92399,-0.11923 0.29806,-0.14903 0.32786,-0.23845 0.14903,-0.29806 0.14903,-0.74515 0.0298,-0.44709 0.0298,-1.10282 v -8.10723 q 0,-0.65573 -0.0894,-0.83457 -0.0894,-0.20864 -0.26825,-0.26825 -0.14903,-0.0596 -0.32787,-0.0894 -0.41728,-0.11922 -0.62593,-0.11922 -0.0596,0 -0.0894,-0.26826 0,-0.29806 0.0894,-0.35767 1.99701,-0.20864 3.48731,-0.68554 0.26825,-0.0894 0.29806,-0.0894 0.20864,0.0596 0.29806,0.35768 -0.0596,0.35767 -0.11923,0.68553 -0.0894,0.44709 -0.0894,1.31147 v 4.11323 q 0.0596,0 0.20865,-0.14903 0.14903,-0.17884 0.47689,-0.41729 0.32787,-0.26825 0.71535,-0.5067 0.86437,-0.4769 1.60952,-0.4769 0.74515,0 1.25185,0.29806 0.53651,0.26826 0.83457,0.83457 0.5067,1.01341 0.5067,3.4873 v 1.28166 q 0,1.4903 0.0894,1.72875 0.0894,0.20864 0.23845,0.29806 0.17883,0.0596 0.38748,0.11922 0.35767,0.0596 0.68553,0.0596 0.0596,0.11922 0.0596,0.38747 0,0.26826 -0.0596,0.35768 -1.4903,-0.14903 -2.59312,-0.14903 -1.07301,0 -2.56331,0.14903 -0.0596,-0.0894 -0.0596,-0.35768 0,-0.26825 0.0596,-0.38747 0.89418,0 1.0134,-0.32787 0.17884,-0.38748 0.17884,-1.87778 v -1.54991 q 0,-2.77196 -1.31147,-2.77196 -0.56631,0 -0.9836,0.26826 -0.74515,0.5365 -0.74515,0.83456 v 3.21905 q 0,1.4903 0.0894,1.72875 0.0894,0.20864 0.23845,0.29806 0.14903,0.0596 0.32787,0.11922 0.29806,0.0596 0.59612,0.0596 0.0894,0.11922 0.0596,0.38747 0,0.26826 -0.0596,0.35768 z"
         style="font-family:Ramaraja;-inkscape-font-specification:Ramaraja;fill:#ffffff"
         id="path248" />
      <path
         d="m 125.85238,132.52413 q -2.80176,-0.26826 -5.60353,0 -0.0596,-0.0894 -0.0596,-0.35768 0,-0.26825 0.0596,-0.38747 0.62593,0 0.92399,-0.11923 0.29806,-0.14903 0.35767,-0.23845 0.14903,-0.35767 0.14903,-1.84797 v -7.24286 q 0,-1.43068 -0.14903,-1.84797 -0.20864,-0.29806 -1.28166,-0.29806 -0.0596,-0.11922 -0.0596,-0.38748 0,-0.26825 0.0596,-0.35767 0.68554,0.0596 1.43069,0.0596 h 1.40088 l 3.01041,-0.0596 q 1.90758,0 3.18924,0.92399 1.34127,0.95379 1.34127,2.59312 0,1.66914 -1.25185,2.80176 -1.13263,1.04321 -2.68254,1.04321 -0.53651,0 -0.89418,-0.17883 -0.35767,-0.17884 -0.4769,-0.26826 -0.0894,-0.11922 -0.14903,-0.38747 -0.0298,-0.26826 0.0596,-0.26826 0.20865,0.0894 0.86438,0.0894 0.68554,0 1.13263,-0.71534 0.47689,-0.71535 0.47689,-1.54992 0,-0.86437 -0.14903,-1.40088 -0.14903,-0.56631 -0.44709,-0.95379 -0.68554,-0.92399 -1.57972,-0.92399 -0.35767,0 -0.65573,0.0298 -0.26825,0.0298 -0.32786,0.20864 -0.11923,0.23845 -0.11923,1.19224 v 7.89859 q 0,0.65573 0,1.10282 0.0298,0.44709 0.11923,0.65574 0.0894,0.17883 0.23844,0.26825 0.17884,0.0596 0.35768,0.11922 0.32786,0.0596 0.71534,0.0596 0.0596,0.11922 0.0596,0.38747 0,0.26826 -0.0596,0.35768 z"
         style="font-family:Ramaraja;-inkscape-font-specification:Ramaraja;fill:#ffffff"
         id="path250" />
      <path
         d="m 135.50954,131.21266 q 0.38747,0 0.59612,-0.14903 0.23844,-0.17883 0.23844,-0.26825 v -2.74215 q -0.32786,0.14903 -0.68553,0.29806 -0.32787,0.11922 -0.68554,0.35767 -0.65573,0.44709 -0.65573,1.19224 0.0298,0.74515 0.41728,1.04321 0.38748,0.26825 0.77496,0.26825 z m 4.41128,-0.29806 q 0.14903,0.0894 0.14903,0.26826 0,0.17883 -0.0894,0.35767 -0.17884,0.17883 -0.62593,0.47689 -0.80476,0.53651 -1.34127,0.53651 -0.53651,0 -0.9836,-0.29806 -0.41728,-0.32786 -0.56631,-0.68554 -0.41729,0.41729 -1.19224,0.71535 -0.74515,0.29806 -1.16244,0.29806 -0.41728,0 -0.89418,-0.20864 -0.47689,-0.20865 -0.80476,-0.53651 -0.74515,-0.74515 -0.74515,-1.4903 0,-0.74515 0.29806,-1.16244 0.32787,-0.44709 0.65573,-0.5365 0.35768,-0.11923 0.80477,-0.29806 0.47689,-0.17884 1.0134,-0.38748 0.68554,-0.23845 1.90758,-0.71535 v -0.92398 q 0,-0.74515 -0.32786,-1.34127 -0.32787,-0.62593 -0.86438,-0.62593 -0.5365,0 -0.77495,0.4769 -0.20864,0.47689 -0.29806,0.9836 -0.23845,1.04321 -1.16244,1.04321 -0.38747,0 -0.71534,-0.23845 -0.29806,-0.26826 -0.29806,-0.56632 0,-0.41728 0.26825,-0.95379 0.32787,-0.32786 1.07302,-0.71534 1.52011,-0.77496 2.71235,-0.77496 1.22204,0 2.05661,0.83457 0.86437,0.83457 0.86437,2.17584 v 3.66614 q 0,0.41728 0.14903,0.62592 0.14903,0.17884 0.32787,0.17884 0.20864,0 0.35767,-0.0894 z"
         style="font-family:Ramaraja;-inkscape-font-specification:Ramaraja;fill:#ffffff"
         id="path252" />
      <path
         d="m 144.86861,123.99961 q -0.0596,0.14903 -0.20865,1.10282 v 4.4709 q 0,1.4903 0.0894,1.72875 0.0894,0.20864 0.23845,0.29806 0.14903,0.0596 0.32787,0.11922 0.29806,0.0596 0.62592,0.0596 0.0596,0.11922 0.0596,0.38747 0,0.26826 -0.0596,0.35768 -1.4903,-0.14903 -2.56331,-0.14903 -1.22205,0 -2.71235,0.14903 -0.0596,-0.0894 -0.0596,-0.35768 0,-0.26825 0.0596,-0.38747 0.62593,0 0.92399,-0.11923 0.29806,-0.14903 0.35767,-0.23845 0.14903,-0.35767 0.14903,-1.84797 V 127.01 q 0,-0.23845 -0.0596,-0.71535 -0.0596,-0.47689 -0.11923,-0.59612 -0.20864,-0.38748 -1.25185,-0.38748 -0.0596,-0.0298 -0.0596,-0.29806 0.0298,-0.29806 0.0894,-0.29806 1.13262,-0.0894 2.20564,-0.41728 1.07302,-0.35767 1.63933,-0.62593 0.0894,0.0298 0.20864,0.14903 0.11923,0.11923 0.11923,0.17884 z m -3.09983,-3.69594 q 0,-0.59612 0.38748,-0.9836 0.41728,-0.41729 1.0134,-0.41729 0.59612,0 1.01341,0.41729 0.41728,0.38748 0.41728,0.9836 0,0.59612 -0.41728,1.0134 -0.41729,0.41728 -1.01341,0.41728 -0.59612,0 -1.0134,-0.41728 -0.38748,-0.41728 -0.38748,-1.0134 z"
         style="font-family:Ramaraja;-inkscape-font-specification:Ramaraja;fill:#ffffff"
         id="path254" />
    </g>
  </g>
</svg>
